<svg id="Layer_1" data-name="Layer 1" xmlns="http://www.w3.org/2000/svg" viewBox="0 0 300 300.01"><defs><style>.cls-1,.cls-2{fill:#6d6e71;}.cls-1{stroke:#6d6e71;stroke-miterlimit:10;stroke-width:0.21px;}.cls-3{fill:#231f20;}.cls-4{fill:#ed1c24;}</style></defs><polygon class="cls-1" points="108.95 256.74 108.95 235.28 107.16 235.28 107.16 258.53 114.57 258.53 114.57 256.74 108.95 256.74"/><path class="cls-1" d="M120.18,254.39a4.48,4.48,0,1,0,9,0v-15a4.48,4.48,0,0,0-9,0Zm1.8-15a2.69,2.69,0,1,1,5.37,0v15a2.69,2.69,0,1,1-5.37,0Z" transform="translate(0 0.01)"/><polygon class="cls-1" points="135.86 258.53 137.65 258.53 137.65 239.93 137.72 239.93 143.57 258.53 145.36 258.53 145.36 235.28 143.57 235.28 143.57 252.92 143.51 252.92 138.03 235.28 135.86 235.28 135.86 258.53"/><path class="cls-1" d="M161.21,240.09a4.84,4.84,0,0,0-4.82-4.82h-4.13v23.26h4.13a4.84,4.84,0,0,0,4.82-4.83Zm-1.79,13.61a3,3,0,0,1-3,3h-2.34V237.06h2.34a3,3,0,0,1,3,3Z" transform="translate(0 0.01)"/><path class="cls-1" d="M167.69,254.39a4.48,4.48,0,1,0,8.95,0v-15a4.48,4.48,0,1,0-8.95,0Zm1.79-15a2.69,2.69,0,1,1,5.37,0v15a2.69,2.69,0,1,1-5.37,0Z" transform="translate(0 0.01)"/><polygon class="cls-1" points="183.36 258.53 185.15 258.53 185.15 239.93 185.22 239.93 191.08 258.53 192.87 258.53 192.87 235.28 191.08 235.28 191.08 252.92 191.01 252.92 185.53 235.28 183.36 235.28 183.36 258.53"/><path class="cls-2" d="M101,66.3c.67-.21,1.33-.43,2-.63.18.58.36,1.17.55,1.75a3.22,3.22,0,0,1,.12,1.3,3.07,3.07,0,0,1-.37,1.19,3.42,3.42,0,0,1-.8,1,3.36,3.36,0,0,1-1.14.64,3.55,3.55,0,0,1-1.32.19,3.38,3.38,0,0,1-1.23-.31,3.14,3.14,0,0,1-1-.73,3,3,0,0,1-.68-1.1l-3-8.23A3,3,0,0,1,94,60.07a3,3,0,0,1,.39-1.23,3.54,3.54,0,0,1,.86-1,4.07,4.07,0,0,1,1.28-.7A3.89,3.89,0,0,1,98,56.89a3.6,3.6,0,0,1,1.32.31,3,3,0,0,1,1,.75,2.8,2.8,0,0,1,.65,1.12c.19.62.38,1.23.58,1.85l-2,.86c-.23-.68-.45-1.36-.67-2a1.18,1.18,0,0,0-.67-.73,1.41,1.41,0,0,0-1,0,1.47,1.47,0,0,0-.83.67,1.16,1.16,0,0,0-.1,1q1.42,4.12,2.86,8.27a1.17,1.17,0,0,0,.66.72,1.31,1.31,0,0,0,1,0,1.23,1.23,0,0,0,.74-.64,1.2,1.2,0,0,0,.09-1L101,66.3" transform="translate(0 0.01)"/><path class="cls-2" d="M104.52,58a2.88,2.88,0,0,1-.08-1.3,3.09,3.09,0,0,1,.46-1.2,3.29,3.29,0,0,1,.93-1,3.87,3.87,0,0,1,1.31-.62,4.09,4.09,0,0,1,1.43-.11,3.36,3.36,0,0,1,1.28.39,3.27,3.27,0,0,1,1,.81,3.12,3.12,0,0,1,.57,1.17c.68,2.84,1.37,5.67,2,8.51a3.13,3.13,0,0,1,0,1.29,3.44,3.44,0,0,1-.45,1.18,3.53,3.53,0,0,1-.85.92,3.42,3.42,0,0,1-4.68-.51,3.41,3.41,0,0,1-.6-1.15c-.81-2.81-1.61-5.61-2.42-8.41m4.41,7.85a1.16,1.16,0,0,0,.61.76,1.29,1.29,0,0,0,1,.12,1.28,1.28,0,0,0,.78-.59,1.19,1.19,0,0,0,.15-1l-2.16-8.47a1.16,1.16,0,0,0-.62-.77,1.4,1.4,0,0,0-1-.11,1.42,1.42,0,0,0-.87.61,1.19,1.19,0,0,0-.16,1l2.31,8.44" transform="translate(0 0.01)"/><path class="cls-2" d="M114.8,52.31q2.82-.62,5.66-1.12c.11.64.23,1.29.35,1.94q-1.74.32-3.45.66c.29,1.45.58,2.91.88,4.36l2.36-.46.36,1.94c-.78.14-1.56.3-2.33.46q.63,3.13,1.27,6.27l-2,.41L114.8,52.31" transform="translate(0 0.01)"/><path class="cls-2" d="M124.11,50.57q2.83-.45,5.69-.8l.24,2c-1.16.14-2.32.3-3.47.46l.63,4.41,2.38-.33c.09.66.17,1.3.26,2l-2.36.32c.31,2.11.62,4.23.92,6.34l-2,.3q-1.16-7.32-2.3-14.62" transform="translate(0 0.01)"/><path class="cls-2" d="M133.47,49.36q2.86-.3,5.72-.48c.05.65.09,1.31.14,2-1.17.08-2.33.17-3.5.28l.39,4.43c.8-.07,1.6-.14,2.4-.19l.14,2c-.79.05-1.58.12-2.36.18l.39,4.42c1.15-.1,2.29-.19,3.44-.27.05.66.09,1.31.13,2q-2.7.18-5.4.45-.75-7.36-1.49-14.72" transform="translate(0 0.01)"/><path class="cls-2" d="M143.1,48.66c1.91-.09,3.82-.14,5.73-.16,0,.67,0,1.32,0,2-1.16,0-2.33,0-3.49.07,0,1.48.09,3,.13,4.45l2.4-.06,0,2-2.37.06c0,1.48.09,3,.14,4.43,1.15,0,2.3-.06,3.45-.07,0,.65,0,1.31,0,2-1.8,0-3.61.06-5.41.14q-.33-7.38-.65-14.78" transform="translate(0 0.01)"/><path class="cls-2" d="M162.35,57.33c-.87-.07-1.75-.12-2.62-.17l-.36,6.39-2-.1L158,48.66l2.2.11q-.18,3.21-.37,6.42l2.65.17L163,49l2.19.17q-.65,7.36-1.28,14.74l-2-.16c.15-2.13.31-4.25.47-6.38" transform="translate(0 0.01)"/><path class="cls-2" d="M169,52.55a3,3,0,0,1,.42-1.24,3.09,3.09,0,0,1,.87-.93,3.62,3.62,0,0,1,1.23-.55,4,4,0,0,1,1.44-.07,3.67,3.67,0,0,1,1.34.45,3.31,3.31,0,0,1,1.65,2,3,3,0,0,1,.08,1.3q-.68,4.32-1.34,8.64a3.1,3.1,0,0,1-.45,1.21,3.44,3.44,0,0,1-.86.92,3.5,3.5,0,0,1-1.14.53,3.33,3.33,0,0,1-1.3.08,3.55,3.55,0,0,1-1.25-.42,3.45,3.45,0,0,1-1-.81,3.27,3.27,0,0,1-.58-1.11,3.09,3.09,0,0,1-.12-1.29c.32-2.9.65-5.79,1-8.69M170,61.48a1.23,1.23,0,0,0,.27.94,1.29,1.29,0,0,0,.87.49,1.26,1.26,0,0,0,1-.25,1.19,1.19,0,0,0,.51-.83q.62-4.34,1.22-8.66a1.18,1.18,0,0,0-.27-1,1.43,1.43,0,0,0-.92-.5,1.4,1.4,0,0,0-1,.24,1.17,1.17,0,0,0-.53.84c-.35,2.89-.72,5.79-1.08,8.68" transform="translate(0 0.01)"/><path class="cls-2" d="M185.44,52.14l2.16.47q-1.29,5.73-2.57,11.48a3.08,3.08,0,0,1-.54,1.19,3.24,3.24,0,0,1-.92.85,3.53,3.53,0,0,1-1.17.46,3.35,3.35,0,0,1-1.3,0,3.3,3.3,0,0,1-1.22-.49,3.47,3.47,0,0,1-.91-.88,3.1,3.1,0,0,1-.51-1.14,2.85,2.85,0,0,1,0-1.3q1-5.79,2.08-11.59l2.17.41q-1.12,5.78-2.24,11.56a1.2,1.2,0,0,0,.21,1,1.33,1.33,0,0,0,1.8.37,1.22,1.22,0,0,0,.57-.8q1.22-5.76,2.42-11.52" transform="translate(0 0.01)"/><path class="cls-2" d="M195.12,66.69a3,3,0,0,1-.63,1.14,3.59,3.59,0,0,1-1,.8,3.42,3.42,0,0,1-1.21.38,3.35,3.35,0,0,1-1.33-.1,3.3,3.3,0,0,1-1.19-.58,3.54,3.54,0,0,1-.86-1,3.14,3.14,0,0,1-.45-1.18,3.36,3.36,0,0,1,.05-1.3c.14-.54.27-1.08.41-1.62l2.07.31-.48,1.82a1.27,1.27,0,0,0,.14,1,1.41,1.41,0,0,0,.83.61,1.33,1.33,0,0,0,1-.11,1.22,1.22,0,0,0,.62-.78l.28-1a.81.81,0,0,0,0-.32,1.16,1.16,0,0,0-.05-.29c0-.1-.06-.2-.08-.3q-1.22-2.49-2.52-5a4.22,4.22,0,0,1-.27-.7,3.6,3.6,0,0,1-.12-.72,3.31,3.31,0,0,1,.08-.82l.15-.56a2.81,2.81,0,0,1,.57-1.16,3.17,3.17,0,0,1,1-.81,4,4,0,0,1,1.31-.39,4,4,0,0,1,2.75.75,3.78,3.78,0,0,1,.93,1,3.49,3.49,0,0,1,.46,1.21,2.87,2.87,0,0,1-.08,1.3c-.13.43-.25.86-.38,1.29-.71-.14-1.42-.27-2.14-.39.15-.5.29-1,.43-1.5a1.19,1.19,0,0,0-.15-1,1.5,1.5,0,0,0-.89-.63,1.46,1.46,0,0,0-1.09.1,1.15,1.15,0,0,0-.63.78c0,.18-.09.37-.14.55a1.18,1.18,0,0,0-.05.35c0,.11,0,.2,0,.28a.68.68,0,0,0,.11.26c.86,1.66,1.7,3.32,2.5,5a3.9,3.9,0,0,1,.23.73,7.14,7.14,0,0,1,.09.74,2.22,2.22,0,0,1-.09.81c-.1.33-.19.66-.29,1" transform="translate(0 0.01)"/><path class="cls-2" d="M202.19,56.57c1.85.59,3.68,1.22,5.51,1.87L207,60.3c-1.12-.4-2.24-.79-3.36-1.16l-1.41,4.21,2.3.8c-.22.61-.44,1.24-.66,1.86-.75-.27-1.51-.53-2.27-.78-.46,1.4-.94,2.8-1.4,4.2,1.1.37,2.21.75,3.3,1.15l-.66,1.85q-2.59-.93-5.2-1.77l4.51-14.09" transform="translate(0 0.01)"/><path class="cls-3" d="M281.78,281.79H18.22V18.22H281.78ZM300,0H0V300H300Z" transform="translate(0 0.01)"/><path class="cls-3" d="M117.58,216H100.79V157.89h-22V216H62V83.14H78.82v58h22v-58h16.79Zm-9.69-7.1h2.59V90.24h-2.59v58H71.72v-58H69.13V208.93h2.59V150.78h36.17Z" transform="translate(0 0.01)"/><path class="cls-3" d="M178,216H129.12V83.14h47.35V99.93H145.91v41.16h22.55v17H145.91v41.17H178Zm-41.74-7.1h34.64v-2.59H138.81V151h22.55v-2.78H138.81V92.83h30.56V90.24H136.22Z" transform="translate(0 0.01)"/><polygon class="cls-3" points="113.89 87.63 113.89 213.42 104.2 213.42 104.2 155.27 75.13 155.27 75.13 213.42 65.44 213.42 65.44 87.63 75.13 87.63 75.13 145.59 104.2 145.59 104.2 87.63 113.89 87.63"/><polygon class="cls-3" points="172.92 96.38 172.92 86.69 132.67 86.69 132.67 212.48 174.41 212.48 174.41 202.79 142.36 202.79 142.36 154.53 164.91 154.53 164.91 144.65 142.36 144.65 142.36 96.38 172.92 96.38"/><path class="cls-3" d="M221.25,190.12a14.54,14.54,0,0,1-29.07,0V177.07l-9.69,1.12v11.93a24.23,24.23,0,0,0,48.45,0V86.69h-9.69Z" transform="translate(0 0.01)"/><path class="cls-3" d="M206.65,217.89a27.81,27.81,0,0,1-27.78-27.77V175l16.8-1.94v17a11,11,0,0,0,22,0v-107h16.79v107A27.81,27.81,0,0,1,206.65,217.89ZM186,181.35v8.77a20.68,20.68,0,0,0,41.36,0V90.24h-2.59v99.88a18.09,18.09,0,0,1-36.17,0v-9.07Z" transform="translate(0 0.01)"/><path class="cls-4" d="M86,248a3.62,3.62,0,1,1,3.62,3.59A3.58,3.58,0,0,1,86,248" transform="translate(0 0.01)"/><path class="cls-4" d="M206.72,248a3.62,3.62,0,1,1,3.62,3.59,3.58,3.58,0,0,1-3.62-3.59" transform="translate(0 0.01)"/></svg>